PathFileType	4	(X/Y/Z)	s06c0401.trc
DataRate	CameraRate	NumFrames	NumMarkers	Units	OrigDataRate	OrigDataStartFrame	OrigNumFrames
200	200	5	48	mm	200	1750	2000
Frame#	Time	racr			lacr			c7			jug			rlel			rdr			llel			ldr			s2			lic			ric			lasi			rasi			rpsi			lpsi			rgt			lgt			rth1			rth2			rth3			rth4			rlfc			rmfc			rsh1			rsh2			rsh3			rsh4			rlmal			rcal			rtoe			rmt5			lth1			lth2			lth4			lth3			llfc			lmfc			llmal			lcal			lmt5			lsh1			lsh2			lsh3			lsh4			ltoe			SBIKE			LBIKE			RBIKE			
		X1	Y1	Z1	X2	Y2	Z2	X3	Y3	Z3	X4	Y4	Z4	X5	Y5	Z5	X6	Y6	Z6	X7	Y7	Z7	X8	Y8	Z8	X9	Y9	Z9	X10	Y10	Z10	X11	Y11	Z11	X12	Y12	Z12	X13	Y13	Z13	X14	Y14	Z14	X15	Y15	Z15	X16	Y16	Z16	X17	Y17	Z17	X18	Y18	Z18	X19	Y19	Z19	X20	Y20	Z20	X21	Y21	Z21	X22	Y22	Z22	X23	Y23	Z23	X24	Y24	Z24	X25	Y25	Z25	X26	Y26	Z26	X27	Y27	Z27	X28	Y28	Z28	X29	Y29	Z29	X30	Y30	Z30	X31	Y31	Z31	X32	Y32	Z32	X33	Y33	Z33	X34	Y34	Z34	X35	Y35	Z35	X36	Y36	Z36	X37	Y37	Z37	X38	Y38	Z38	X39	Y39	Z39	X40	Y40	Z40	X41	Y41	Z41	X42	Y42	Z42	X43	Y43	Z43	X44	Y44	Z44	X45	Y45	Z45	X46	Y46	Z46	X47	Y47	Z47	X48	Y48	Z48	
1750	8.7500	528.745750	1324.467139	-68.327385	542.039551	1320.811486	-396.828701	516.326272	1417.341862	-231.468093	517.881203	1239.962140	-223.510969	507.661302	1067.332108	45.206370	657.931443	910.538793	-61.912751	501.006404	1065.988635	-503.876365	657.192755	920.297003	-411.133287	7.170096	1122.517413	-213.193027	183.745483	1111.032660	-389.800158	169.632540	1087.682492	-59.957849	197.591294	1055.900202	-350.626567	201.577016	1042.875970	-95.546865	43.482890	1163.433402	-183.524603	37.611919	1160.291305	-247.707990	127.811997	999.771522	-31.803632	157.167906	1053.983794	-418.421576	207.225630	892.960279	-11.845825	277.660276	836.673194	-16.080559	309.163140	755.425231	-26.138291	305.097815	859.711713	-31.276427	349.145244	659.481211	-44.884291	346.688669	636.437772	-155.069060	320.775589	542.563878	-20.276345	321.077878	457.224702	-42.769587	281.440254	379.903027	-47.422834	343.184052	457.142194	-76.354071	256.072922	305.664792	-55.285849	190.832078	300.847894	-105.168884	434.165598	170.163948	-104.957470	337.475400	192.037001	-36.223525	226.673278	966.245856	-424.649108	309.859255	940.822287	-416.351140	327.763746	969.722365	-399.557608	370.341962	875.241440	-412.833688	420.807429	779.827956	-381.538422	416.950528	762.476340	-263.060651	104.976207	584.620531	-381.825106	32.377043	610.157617	-334.574994	140.784258	447.161956	-408.722486	337.525854	714.218372	-404.767678	277.361362	654.457891	-386.237853	194.582668	625.536499	-393.250772	291.908431	637.537041	-354.786826	208.362252	391.568427	-352.104839	-204.517351	868.308636	-220.658699	-50.342566	79.742673	-419.960313	-50.349322	79.953469	-22.361237	
1751	8.7550	528.995216	1324.580418	-68.588029	541.968482	1320.923208	-397.228405	516.333154	1417.494259	-231.817949	518.081105	1240.114103	-223.867417	507.770831	1067.437842	44.995394	657.978335	910.513296	-61.923078	500.960731	1065.872473	-504.037230	657.185724	920.311375	-411.136398	7.147196	1122.570795	-212.431967	183.777447	1111.300748	-389.987477	170.034313	1087.427303	-59.951952	197.315042	1056.977240	-350.826614	199.761428	1042.291277	-97.603838	43.569644	1163.482443	-183.314604	37.676230	1160.407317	-247.478756	127.440663	999.157883	-32.045488	157.213206	1055.525446	-418.300653	205.989115	891.621243	-11.992390	275.758652	834.419539	-16.215965	306.375849	752.896353	-26.340356	303.467506	857.240622	-31.402844	345.520463	656.568152	-45.106617	342.839574	633.544982	-155.320351	317.288021	539.674075	-20.409714	317.672216	454.358159	-42.887630	278.100686	376.957853	-47.438984	339.810221	454.277876	-76.306685	253.034041	302.746533	-55.201570	187.877435	298.529624	-105.240145	429.734766	165.024373	-104.889652	333.249867	188.110779	-36.164129	227.109828	968.807696	-424.612565	310.574598	944.357897	-416.141512	328.074958	973.405277	-399.256855	371.868415	879.492396	-412.829772	423.586368	784.514965	-381.497251	419.906286	767.153807	-262.985981	108.149198	588.308519	-381.884272	35.135430	613.202738	-334.579432	145.743443	451.720941	-409.595924	340.589075	718.718187	-404.702732	280.485707	658.800601	-386.226216	197.770724	629.755231	-393.341321	295.095645	641.777563	-354.764888	213.352760	396.526636	-352.336787	-204.506469	868.308603	-220.650104	-50.354445	79.749867	-419.962539	-50.348667	79.905270	-22.385311	
1752	8.7600	529.246505	1324.752308	-68.882456	541.901895	1321.044804	-397.605765	516.339941	1417.657299	-232.082780	518.219635	1240.247345	-224.263719	507.868717	1067.544467	44.811624	657.984569	910.472981	-61.967599	500.898879	1065.826728	-504.247254	657.152465	920.312056	-411.135482	7.327404	1122.732045	-213.047911	183.800421	1111.573429	-390.202855	170.290866	1087.113702	-59.916714	197.001521	1057.694632	-350.473090	200.146340	1041.925483	-97.338617	43.675237	1163.539683	-183.149916	37.735620	1160.515440	-247.292439	127.237764	998.709486	-32.202480	157.238170	1057.161297	-418.242821	204.893963	890.324418	-11.963933	273.905730	832.350669	-16.306843	303.245681	750.429471	-26.307101	301.883542	854.778910	-31.602198	341.877409	653.610823	-45.366274	338.856064	630.792989	-155.578675	313.823427	536.888475	-20.553263	314.305462	451.759663	-42.835937	274.910005	374.179288	-47.394661	336.402301	451.550883	-76.519990	249.927844	300.027577	-55.212627	184.784665	296.558134	-105.263127	425.170681	160.192590	-104.806468	328.886278	184.382885	-36.106805	227.516672	971.386489	-424.654241	311.212160	947.874830	-416.008694	328.349403	977.074792	-398.899756	373.283419	883.788792	-412.905820	426.270044	789.198921	-381.414750	422.782682	771.734418	-262.774495	111.294320	591.887122	-381.914886	37.904675	616.051158	-334.854514	150.211529	455.755148	-409.587349	343.585594	723.082389	-404.595690	283.590465	663.013130	-386.219935	200.958623	633.784346	-393.341133	298.202798	646.115265	-354.818658	218.880776	401.803781	-352.835397	-204.511676	868.328956	-220.670986	-50.341871	79.746425	-419.958249	-50.328880	79.941892	-22.366001	
1753	8.7650	529.431947	1324.919614	-69.159751	541.814333	1321.172354	-398.009474	516.346427	1417.805912	-232.409020	518.519486	1240.350093	-224.515718	507.969048	1067.635599	44.652492	657.984603	910.446669	-61.974145	500.813286	1065.755349	-504.386207	657.108038	920.330559	-411.134554	7.429814	1122.888615	-213.135150	183.823651	1111.890446	-390.392171	170.588757	1087.022867	-59.870793	196.628933	1058.754980	-349.912412	200.510986	1041.472454	-97.151768	43.728691	1163.609725	-182.963167	37.829504	1160.618866	-247.159021	127.038484	998.219804	-32.415207	157.253624	1058.750914	-418.122735	203.717544	889.148346	-12.015797	272.277212	830.051586	-16.633362	300.593061	748.097626	-26.573095	300.225259	852.438720	-31.618022	338.333540	650.919429	-45.548489	334.971005	628.100270	-155.836177	310.324032	534.247864	-20.646657	310.904419	449.042911	-43.014983	271.611123	371.360729	-47.425845	332.985165	448.954211	-76.640589	246.708394	297.279472	-55.123624	181.690088	294.622714	-105.209450	420.395578	155.359804	-104.746517	324.379587	180.738589	-36.069192	227.820295	973.971548	-424.413945	311.832997	951.339039	-415.750748	328.523657	980.796896	-398.521324	374.701191	887.981898	-412.865268	428.887586	793.857350	-381.262724	425.537936	776.255267	-262.623112	114.377356	595.188146	-381.950544	40.615958	618.591487	-334.879686	154.882768	459.765376	-409.666787	346.482252	727.565407	-404.555651	286.643935	667.224508	-386.242315	204.098565	637.801482	-393.407716	301.281969	650.260706	-354.854679	223.887184	406.238508	-352.352736	-204.520920	868.321274	-220.682086	-50.351736	79.744179	-419.959317	-50.352789	79.935669	-22.371625	
1754	8.7700	529.665596	1325.064683	-69.391610	541.720739	1321.285121	-398.378886	516.359190	1417.998967	-232.722557	518.740424	1240.516644	-224.830633	508.067579	1067.749149	44.500995	657.965488	910.433475	-61.992861	500.734815	1065.684040	-504.506419	657.079264	920.356383	-411.157659	7.543045	1123.082210	-213.230658	183.843732	1112.201182	-390.598683	170.873527	1086.959173	-59.832745	196.233485	1059.844868	-350.050112	200.869384	1041.105087	-96.920555	43.792814	1163.707628	-182.868215	37.931908	1160.769636	-247.039386	126.846424	997.714815	-32.656278	157.226033	1060.359238	-417.952408	202.628072	887.943184	-12.100832	270.506055	828.139724	-16.816507	297.874076	745.817801	-26.837344	297.945687	849.317888	-32.983256	334.945345	648.537200	-45.770063	331.135085	625.493762	-156.037537	306.933090	531.755854	-20.765471	307.532117	446.552337	-43.080451	268.248056	368.916969	-47.275338	329.566542	446.401676	-76.641994	243.406449	294.699000	-55.081876	178.375763	293.002098	-105.234096	415.460365	150.696902	-104.678324	319.731024	177.231986	-36.002256	228.153789	976.421773	-424.345970	312.358820	954.787731	-415.582884	328.749439	984.478256	-398.365128	376.035250	892.033766	-412.895995	431.594698	798.352229	-381.617142	428.290532	780.801372	-262.472819	117.400050	598.485801	-381.981476	43.260994	620.937423	-334.963572	159.611724	463.597932	-409.675032	349.290801	731.924691	-404.446116	289.609736	671.274367	-386.207415	207.253782	641.535475	-393.521643	304.258824	654.406057	-354.834451	229.323003	411.060897	-352.453205	-204.550118	868.309571	-220.668698	-50.345760	79.755195	-419.970471	-50.328085	79.952395	-22.386156	
